<svg width="123" height="123" viewBox="0 0 123 123" fill="none" xmlns="http://www.w3.org/2000/svg">
<path d="M61.5 0C27.5262 0 0 27.5262 0 61.5C0 95.4738 27.5262 123 61.5 123C95.4738 123 123 95.4738 123 61.5C123 27.5262 95.4738 0 61.5 0ZM61.5 23.8065C73.552 23.8065 83.3226 33.577 83.3226 45.629C83.3226 57.681 73.552 67.4516 61.5 67.4516C49.448 67.4516 39.6774 57.681 39.6774 45.629C39.6774 33.577 49.448 23.8065 61.5 23.8065ZM61.5 109.113C46.9433 109.113 33.8994 102.517 25.1704 92.2004C29.8325 83.4218 38.9583 77.371 49.5968 77.371C50.1919 77.371 50.7871 77.4702 51.3575 77.6438C54.5813 78.6853 57.9538 79.3548 61.5 79.3548C65.0462 79.3548 68.4436 78.6853 71.6425 77.6438C72.2129 77.4702 72.8081 77.371 73.4032 77.371C84.0417 77.371 93.1675 83.4218 97.8296 92.2004C89.1006 102.517 76.0567 109.113 61.5 109.113Z" fill="#222222"/>
</svg>
