<svg width="19" height="19" viewBox="0 0 19 19" fill="none" xmlns="http://www.w3.org/2000/svg">
<path d="M17.0631 3.16657C16.9911 3.15916 16.9186 3.15916 16.8467 3.16657H2.06891C1.97419 3.16803 1.88011 3.18223 1.78918 3.20879L9.41557 10.8035L17.0631 3.16657Z" fill="#222222"/>
<path d="M17.8442 3.90027L10.1598 11.553C9.96202 11.7496 9.69448 11.86 9.41562 11.86C9.13676 11.86 8.86923 11.7496 8.67145 11.553L1.05562 3.95832C1.03221 4.04437 1.01979 4.13304 1.01868 4.22221V14.7778C1.01868 15.0577 1.12989 15.3262 1.32784 15.5242C1.5258 15.7221 1.79428 15.8333 2.07423 15.8333H16.852C17.132 15.8333 17.4004 15.7221 17.5984 15.5242C17.7964 15.3262 17.9076 15.0577 17.9076 14.7778V4.22221C17.9034 4.11225 17.882 4.00363 17.8442 3.90027ZM2.79729 14.7778H2.06368V14.023L5.90062 10.2178L6.64479 10.9619L2.79729 14.7778ZM16.8415 14.7778H16.1026L12.2551 10.9619L12.9992 10.2178L16.8362 14.023L16.8415 14.7778Z" fill="#222222"/>
</svg>
