<svg width="16" height="14" viewBox="0 0 16 14" fill="none" xmlns="http://www.w3.org/2000/svg">
<path d="M0.705787 0C0.518601 0 0.339081 0.0762906 0.20672 0.212089C0.0743594 0.347887 0 0.532069 0 0.724117C0 0.916165 0.0743594 1.10035 0.20672 1.23615C0.339081 1.37194 0.518601 1.44823 0.705787 1.44823H5.41103C5.59822 1.44823 5.77774 1.37194 5.9101 1.23615C6.04246 1.10035 6.11682 0.916165 6.11682 0.724117C6.11682 0.532069 6.04246 0.347887 5.9101 0.212089C5.77774 0.0762906 5.59822 0 5.41103 0H0.705787ZM3.52893 2.89647C3.34175 2.89647 3.16223 2.97276 3.02987 3.10856C2.89751 3.24436 2.82315 3.42854 2.82315 3.62059C2.82315 3.81263 2.89751 3.99682 3.02987 4.13261C3.16223 4.26841 3.34175 4.3447 3.52893 4.3447H7.76366C7.95084 4.3447 8.13036 4.26841 8.26272 4.13261C8.39508 3.99682 8.46944 3.81263 8.46944 3.62059C8.46944 3.42854 8.39508 3.24436 8.26272 3.10856C8.13036 2.97276 7.95084 2.89647 7.76366 2.89647H3.52893ZM1.8821 6.51706C1.8821 6.32501 1.95646 6.14083 2.08882 6.00503C2.22118 5.86923 2.4007 5.79294 2.58789 5.79294H11.5279C11.5843 5.79294 11.6389 5.7997 11.6916 5.81225L10.2988 7.24117H2.58789C2.4007 7.24117 2.22118 7.16488 2.08882 7.02908C1.95646 6.89328 1.8821 6.7091 1.8821 6.51706ZM7.78624 9.81903L8.70565 8.87478C8.57629 8.75522 8.40829 8.68916 8.23418 8.68941H0.705787C0.518601 8.68941 0.339081 8.7657 0.20672 8.9015C0.0743594 9.0373 0 9.22148 0 9.41352C0 9.60557 0.0743594 9.78975 0.20672 9.92555C0.339081 10.0614 0.518601 10.1376 0.705787 10.1376H7.51522C7.59838 10.0252 7.68894 9.91878 7.78624 9.81903ZM9.88102 3.62059C9.88102 3.42854 9.95538 3.24436 10.0877 3.10856C10.2201 2.97276 10.3996 2.89647 10.5868 2.89647H13.41C13.5971 2.89647 13.7767 2.97276 13.909 3.10856C14.0414 3.24436 14.1157 3.42854 14.1157 3.62059C14.1157 3.81263 14.0414 3.99682 13.909 4.13261C13.7767 4.26841 13.5971 4.3447 13.41 4.3447H10.5868C10.3996 4.3447 10.2201 4.26841 10.0877 4.13261C9.95538 3.99682 9.88102 3.81263 9.88102 3.62059ZM8.23418 0C8.04699 0 7.86748 0.0762906 7.73511 0.212089C7.60275 0.347887 7.52839 0.532069 7.52839 0.724117C7.52839 0.916165 7.60275 1.10035 7.73511 1.23615C7.86748 1.37194 8.04699 1.44823 8.23418 1.44823H14.351C14.5382 1.44823 14.7177 1.37194 14.8501 1.23615C14.9824 1.10035 15.0568 0.916165 15.0568 0.724117C15.0568 0.532069 14.9824 0.347887 14.8501 0.212089C14.7177 0.0762906 14.5382 0 14.351 0H8.23418ZM8.45062 10.5016L12.9959 5.83832C13.3261 5.4998 13.7738 5.30972 14.2406 5.30991C14.7074 5.31009 15.155 5.50051 15.485 5.83928C15.8149 6.17805 16.0002 6.63743 16 7.11634C15.9998 7.59526 15.8142 8.05449 15.484 8.393L10.9388 13.0554C10.674 13.3271 10.3422 13.52 9.97889 13.6134L8.56919 13.9745C8.42902 14.0103 8.2822 14.0084 8.14299 13.9688C8.00378 13.9292 7.87691 13.8534 7.77472 13.7486C7.67252 13.6439 7.59847 13.5138 7.55976 13.371C7.52105 13.2282 7.519 13.0775 7.5538 12.9337L7.9067 11.4874C7.99695 11.1143 8.18507 10.7737 8.45062 10.5026V10.5016Z" fill="#222222"/>
</svg>
