<svg width="15" height="15" viewBox="0 0 15 15" fill="none" xmlns="http://www.w3.org/2000/svg">
<path d="M14.8634 14.1994L10.3238 9.61546C11.1699 8.59842 11.6799 7.28996 11.6799 5.86123C11.6799 2.62419 9.06521 0 5.83993 0C2.61465 0 0 2.62419 0 5.86123C0 9.09826 2.61465 11.7225 5.83993 11.7225C7.30529 11.7225 8.6438 11.1795 9.66929 10.2843L14.2025 14.8627C14.3849 15.0458 14.6809 15.0458 14.8633 14.8627C15.0456 14.6796 15.0456 14.3827 14.8633 14.1994H14.8634ZM5.83993 10.7924C3.12647 10.7924 0.926681 8.58459 0.926681 5.86123C0.926681 3.13787 3.12647 0.930059 5.83993 0.930059C8.5534 0.930059 10.7532 3.13787 10.7532 5.86123C10.7532 8.58459 8.5534 10.7924 5.83993 10.7924Z" fill="#8E8E8E"/>
</svg>
