<svg width="37" height="32" viewBox="0 0 37 32" fill="none" xmlns="http://www.w3.org/2000/svg">
<path d="M36.8214 30.0408L19.6438 0.653061C19.3878 0.216327 18.946 0 18.5 0C18.054 0 17.6081 0.216327 17.3562 0.653061L0.178603 30.0408C-0.329292 30.9143 0.306609 32 1.3224 32H35.6776C36.6934 32 37.3293 30.9143 36.8214 30.0408ZM17.1786 12.0816C17.1786 11.902 17.3273 11.7551 17.509 11.7551H19.491C19.6727 11.7551 19.8214 11.902 19.8214 12.0816V19.5918C19.8214 19.7714 19.6727 19.9184 19.491 19.9184H17.509C17.3273 19.9184 17.1786 19.7714 17.1786 19.5918V12.0816ZM18.5 26.449C17.9813 26.4385 17.4875 26.2275 17.1244 25.8612C16.7614 25.4949 16.558 25.0026 16.558 24.4898C16.558 23.977 16.7614 23.4846 17.1244 23.1184C17.4875 22.7521 17.9813 22.5411 18.5 22.5306C19.0187 22.5411 19.5125 22.7521 19.8756 23.1184C20.2386 23.4846 20.442 23.977 20.442 24.4898C20.442 25.0026 20.2386 25.4949 19.8756 25.8612C19.5125 26.2275 19.0187 26.4385 18.5 26.449Z" fill="#222222"/>
</svg>
