<svg width="19" height="21" viewBox="0 0 19 21" fill="none" xmlns="http://www.w3.org/2000/svg">
<path d="M3.97225 0.000324285C3.63222 0.00658215 3.32593 0.0931762 3.07156 0.262941C2.68404 0.521813 2.46081 0.953124 2.39343 1.40433C2.25872 2.30685 2.63986 3.34882 3.42452 4.20219C4.20907 5.05545 5.43229 5.703 7.0082 5.703H7.13476L6.66142 4.72774C5.50927 4.64462 4.66486 4.15132 4.10281 3.54008C3.48583 2.8691 3.24402 2.03905 3.31695 1.55094C3.3534 1.30683 3.44165 1.16316 3.57974 1.07095C3.71782 0.978744 3.94899 0.917181 4.34576 1.00003C5.02467 1.14177 6.12288 1.74605 7.57498 3.10118L7.64516 3.0287H8.86033C7.0273 1.16739 5.63059 0.286047 4.53134 0.0564848C4.39575 0.0277391 4.25821 0.0097509 4.11994 0.00267801C4.0701 0.000271139 4.02078 -0.00053152 3.97225 0.000377742V0.000324285ZM15.0278 0.000324285C14.9792 -0.000531491 14.9299 0.000324625 14.8801 0.00267801C14.7471 0.00909633 14.6096 0.027014 14.4687 0.0564848C13.3694 0.286047 11.9726 1.16739 10.1397 3.0287H11.3548L11.425 3.10112C12.8771 1.746 13.9753 1.14177 14.6542 0.999978C15.051 0.917075 15.2821 0.978691 15.4202 1.0709C15.5583 1.16316 15.6466 1.30677 15.683 1.55083C15.7559 2.03894 15.5141 2.86899 14.8971 3.53998C14.3351 4.15132 13.4907 4.64457 12.3385 4.72769L11.8652 5.703H11.9918C13.5677 5.703 14.7909 5.0555 15.5755 4.20219C16.3601 3.34882 16.7413 2.30685 16.6066 1.40433C16.5392 0.953124 16.316 0.521813 15.9284 0.262941C15.6741 0.0931762 15.3678 0.00658215 15.0278 0.000324285V0.000324285ZM8.03243 3.99145L7.57664 4.4609L8.12764 5.59603H10.8725L11.4233 4.4609L10.9677 3.99145H8.03254H8.03243ZM0 6.55878V9.01913H7.37158V6.55878H0ZM8.30601 6.55878V21H10.694V6.55878H8.30601ZM11.6284 6.55878V9.01913H19V6.55878H11.6284ZM1.6612 9.98188V21H7.37158V9.98188H1.6612ZM11.6284 9.98188V21H17.3388V9.98188H11.6284Z" fill="#222222"/>
</svg>
