<svg width="20" height="20" viewBox="0 0 20 20" fill="none" xmlns="http://www.w3.org/2000/svg">
<path d="M7.26204 0.335654C7.38019 0.479216 7.45257 0.654908 7.46983 0.84003C7.48709 1.02515 7.44844 1.2112 7.35887 1.37413C6.65912 2.65887 6.29369 4.09896 6.29619 5.5619C6.29619 10.4287 10.2637 14.3696 15.1535 14.3696C15.7913 14.3696 16.4122 14.303 17.0089 14.1759C17.1918 14.1363 17.3824 14.1514 17.5567 14.2195C17.7311 14.2875 17.8815 14.4054 17.9893 14.5584C18.1031 14.7175 18.161 14.9097 18.1543 15.1052C18.1475 15.3006 18.0763 15.4884 17.9518 15.6392C17.0025 16.8053 15.8049 17.7448 14.4464 18.3893C13.0879 19.0338 11.6027 19.367 10.0991 19.3646C4.51941 19.3646 0 14.8694 0 9.33091C0 5.16249 2.55866 1.58715 6.20178 0.0717998C6.38326 -0.00489729 6.58472 -0.020639 6.77591 0.0269393C6.9671 0.0745176 7.13768 0.182847 7.26204 0.335654ZM5.87983 1.58594C4.47899 2.33735 3.3079 3.45427 2.49104 4.81798C1.67417 6.1817 1.24205 7.74126 1.2406 9.33091C1.2406 14.1965 5.20931 18.1373 10.0991 18.1373C11.27 18.1394 12.4297 17.9091 13.5111 17.46C14.5925 17.0108 15.574 16.3516 16.3989 15.5206C15.991 15.5714 15.5759 15.5968 15.1535 15.5968C9.57379 15.5968 5.05559 11.1016 5.05559 5.56312C5.05559 4.15065 5.34849 2.80596 5.87983 1.58594Z" fill="white"/>
<path d="M13.0643 3.80932C13.0816 3.7569 13.1151 3.71129 13.1598 3.67896C13.2046 3.64663 13.2584 3.62923 13.3136 3.62923C13.3688 3.62923 13.4226 3.64663 13.4674 3.67896C13.5122 3.71129 13.5456 3.7569 13.5629 3.80932L14.0313 5.21573C14.2407 5.84269 14.7321 6.33409 15.3591 6.54348L16.7655 7.01188C16.8179 7.02923 16.8635 7.06267 16.8959 7.10743C16.9282 7.15219 16.9456 7.20599 16.9456 7.26121C16.9456 7.31642 16.9282 7.37023 16.8959 7.41499C16.8635 7.45975 16.8179 7.49318 16.7655 7.51054L15.3591 7.97894C15.0499 8.08196 14.7689 8.25558 14.5384 8.48604C14.308 8.7165 14.1344 8.99747 14.0313 9.30668L13.5629 10.7131C13.5456 10.7655 13.5122 10.8111 13.4674 10.8435C13.4226 10.8758 13.3688 10.8932 13.3136 10.8932C13.2584 10.8932 13.2046 10.8758 13.1598 10.8435C13.1151 10.8111 13.0816 10.7655 13.0643 10.7131L12.5959 9.30668C12.4929 8.99747 12.3192 8.7165 12.0888 8.48604C11.8583 8.25558 11.5774 8.08196 11.2681 7.97894L9.86172 7.51054C9.80931 7.49318 9.7637 7.45975 9.73137 7.41499C9.69904 7.37023 9.68164 7.31642 9.68164 7.26121C9.68164 7.20599 9.69904 7.15219 9.73137 7.10743C9.7637 7.06267 9.80931 7.02923 9.86172 7.01188L11.2681 6.54348C11.5774 6.44046 11.8583 6.26684 12.0888 6.03637C12.3192 5.80591 12.4929 5.52494 12.5959 5.21573L13.0643 3.80932ZM16.7788 0.118988C16.7908 0.0845251 16.8132 0.0546413 16.8429 0.0334914C16.8726 0.0123416 16.9082 0.000976562 16.9446 0.000976562C16.9811 0.000976563 17.0167 0.0123416 17.0464 0.0334914C17.0761 0.0546413 17.0985 0.0845251 17.1105 0.118988L17.4227 1.05579C17.5619 1.47457 17.8899 1.80257 18.3087 1.94176L19.2455 2.25403C19.28 2.26598 19.3098 2.28837 19.331 2.31808C19.3521 2.3478 19.3635 2.38337 19.3635 2.41985C19.3635 2.45632 19.3521 2.49189 19.331 2.52161C19.3098 2.55132 19.28 2.57371 19.2455 2.58566L18.3087 2.89793C18.1023 2.96658 17.9148 3.08241 17.761 3.2362C17.6072 3.38999 17.4914 3.57752 17.4227 3.7839L17.1105 4.7207C17.0985 4.75517 17.0761 4.78505 17.0464 4.8062C17.0167 4.82735 16.9811 4.83871 16.9446 4.83871C16.9082 4.83871 16.8726 4.82735 16.8429 4.8062C16.8132 4.78505 16.7908 4.75517 16.7788 4.7207L16.4666 3.7839C16.3979 3.57752 16.2821 3.38999 16.1283 3.2362C15.9745 3.08241 15.787 2.96658 15.5806 2.89793L14.6438 2.58566C14.6093 2.57371 14.5794 2.55132 14.5583 2.52161C14.5371 2.49189 14.5258 2.45632 14.5258 2.41985C14.5258 2.38337 14.5371 2.3478 14.5583 2.31808C14.5794 2.28837 14.6093 2.26598 14.6438 2.25403L15.5806 1.94176C15.9994 1.80257 16.3274 1.47457 16.4666 1.05579L16.7788 0.120198V0.118988Z" fill="white"/>
</svg>
