<svg width="20" height="20" viewBox="0 0 20 20" fill="none" xmlns="http://www.w3.org/2000/svg">
<path d="M12.8125 10C12.8125 11.5547 11.5547 12.8125 10 12.8125C8.44531 12.8125 7.1875 11.5547 7.1875 10C7.1875 8.44531 8.44531 7.1875 10 7.1875C11.5547 7.1875 12.8125 8.44531 12.8125 10ZM16.875 7.1875C15.3203 7.1875 14.0625 8.44531 14.0625 10C14.0625 11.5547 15.3203 12.8125 16.875 12.8125C18.4297 12.8125 19.6875 11.5547 19.6875 10C19.6875 8.44531 18.4297 7.1875 16.875 7.1875ZM3.125 7.1875C1.57031 7.1875 0.3125 8.44531 0.3125 10C0.3125 11.5547 1.57031 12.8125 3.125 12.8125C4.67969 12.8125 5.9375 11.5547 5.9375 10C5.9375 8.44531 4.67969 7.1875 3.125 7.1875Z" fill="#222222"/>
</svg>
