<svg width="33" height="33" viewBox="0 0 33 33" fill="none" xmlns="http://www.w3.org/2000/svg">
<path d="M16.5 0C13.2366 0 10.0465 0.967708 7.3331 2.78075C4.61969 4.59379 2.50484 7.17074 1.25599 10.1857C0.00714911 13.2007 -0.319606 16.5183 0.31705 19.719C0.953706 22.9197 2.52518 25.8597 4.83274 28.1673C7.14031 30.4748 10.0803 32.0463 13.281 32.6829C16.4817 33.3196 19.7993 32.9929 22.8143 31.744C25.8293 30.4952 28.4062 28.3803 30.2192 25.6669C32.0323 22.9535 33 19.7634 33 16.5C33 12.1239 31.2616 7.92709 28.1673 4.83274C25.0729 1.73839 20.8761 0 16.5 0ZM25.6667 18.3333H7.33334V14.6667H25.6667V18.3333Z" fill="#222222"/>
</svg>
