<svg width="45" height="31" viewBox="0 0 45 31" fill="none" xmlns="http://www.w3.org/2000/svg">
<path d="M13.5 15.5C17.8523 15.5 21.375 12.0333 21.375 7.75C21.375 3.46674 17.8523 0 13.5 0C9.14766 0 5.625 3.46674 5.625 7.75C5.625 12.0333 9.14766 15.5 13.5 15.5ZM18.9 17.7143H18.3164C16.8539 18.4062 15.2297 18.8214 13.5 18.8214C11.7703 18.8214 10.1531 18.4062 8.68359 17.7143H8.1C3.62812 17.7143 0 21.2848 0 25.6857V27.6786C0 29.5123 1.51172 31 3.375 31H23.625C25.4883 31 27 29.5123 27 27.6786V25.6857C27 21.2848 23.3719 17.7143 18.9 17.7143ZM33.75 15.5C37.4766 15.5 40.5 12.5246 40.5 8.85714C40.5 5.18973 37.4766 2.21429 33.75 2.21429C30.0234 2.21429 27 5.18973 27 8.85714C27 12.5246 30.0234 15.5 33.75 15.5ZM37.125 17.7143H36.8578C35.8805 18.0464 34.8469 18.2679 33.75 18.2679C32.6531 18.2679 31.6195 18.0464 30.6422 17.7143H30.375C28.9406 17.7143 27.6187 18.1225 26.4586 18.7799C28.1742 20.5998 29.25 23.0147 29.25 25.6857V28.3429C29.25 28.4951 29.2148 28.6404 29.2078 28.7857H41.625C43.4883 28.7857 45 27.298 45 25.4643C45 21.181 41.4773 17.7143 37.125 17.7143Z" fill="#222222"/>
</svg>
